<mxfile host="app.diagrams.net" agent="Mozilla/5.0 (Windows NT 10.0; Win64; x64) AppleWebKit/537.36 (KHTML, like Gecko) Chrome/138.0.0.0 Safari/537.36 Edg/138.0.0.0" version="27.2.0">
  <diagram name="PÃ¡gina-1" id="ra_g4-LI1xVzfJsc8vZK">
    <mxGraphModel dx="1878" dy="743" grid="1" gridSize="10" guides="1" tooltips="1" connect="1" arrows="1" fold="1" page="1" pageScale="1" pageWidth="827" pageHeight="1169" math="0" shadow="0">
      <root>
        <mxCell id="0" />
        <mxCell id="1" parent="0" />
        <mxCell id="BsXj8NQYL5RJio6QYh29-70" value="" style="rounded=0;whiteSpace=wrap;html=1;" vertex="1" parent="1">
          <mxGeometry x="-275" y="463" width="200" height="140" as="geometry" />
        </mxCell>
        <mxCell id="BsXj8NQYL5RJio6QYh29-69" value="" style="rounded=0;whiteSpace=wrap;html=1;" vertex="1" parent="1">
          <mxGeometry x="55" y="693" width="200" height="130" as="geometry" />
        </mxCell>
        <mxCell id="BsXj8NQYL5RJio6QYh29-17" style="edgeStyle=orthogonalEdgeStyle;rounded=0;orthogonalLoop=1;jettySize=auto;html=1;entryX=0;entryY=0.5;entryDx=0;entryDy=0;" edge="1" parent="1" source="BsXj8NQYL5RJio6QYh29-1" target="BsXj8NQYL5RJio6QYh29-13">
          <mxGeometry relative="1" as="geometry" />
        </mxCell>
        <mxCell id="BsXj8NQYL5RJio6QYh29-21" style="edgeStyle=orthogonalEdgeStyle;rounded=0;orthogonalLoop=1;jettySize=auto;html=1;entryX=0.5;entryY=0;entryDx=0;entryDy=0;" edge="1" parent="1" source="BsXj8NQYL5RJio6QYh29-1" target="BsXj8NQYL5RJio6QYh29-20">
          <mxGeometry relative="1" as="geometry" />
        </mxCell>
        <mxCell id="BsXj8NQYL5RJio6QYh29-64" style="edgeStyle=orthogonalEdgeStyle;rounded=0;orthogonalLoop=1;jettySize=auto;html=1;entryX=0;entryY=0.5;entryDx=0;entryDy=0;" edge="1" parent="1" source="BsXj8NQYL5RJio6QYh29-1" target="BsXj8NQYL5RJio6QYh29-63">
          <mxGeometry relative="1" as="geometry" />
        </mxCell>
        <mxCell id="BsXj8NQYL5RJio6QYh29-1" value="&lt;font style=&quot;font-size: 17px;&quot;&gt;Paciente&lt;/font&gt;" style="rounded=0;whiteSpace=wrap;html=1;" vertex="1" parent="1">
          <mxGeometry x="-610" y="508" width="130" height="70" as="geometry" />
        </mxCell>
        <mxCell id="BsXj8NQYL5RJio6QYh29-40" style="edgeStyle=orthogonalEdgeStyle;rounded=0;orthogonalLoop=1;jettySize=auto;html=1;entryX=0.5;entryY=1;entryDx=0;entryDy=0;" edge="1" parent="1" source="BsXj8NQYL5RJio6QYh29-2" target="BsXj8NQYL5RJio6QYh29-20">
          <mxGeometry relative="1" as="geometry" />
        </mxCell>
        <mxCell id="BsXj8NQYL5RJio6QYh29-2" value="&lt;div style=&quot;line-height: 190%;&quot;&gt;&lt;font style=&quot;font-size: 17px;&quot;&gt;TipoSangre&lt;/font&gt;&lt;/div&gt;" style="rounded=0;whiteSpace=wrap;html=1;" vertex="1" parent="1">
          <mxGeometry x="-605" y="890" width="120" height="60" as="geometry" />
        </mxCell>
        <mxCell id="BsXj8NQYL5RJio6QYh29-48" style="edgeStyle=orthogonalEdgeStyle;rounded=0;orthogonalLoop=1;jettySize=auto;html=1;entryX=0.5;entryY=0;entryDx=0;entryDy=0;" edge="1" parent="1" source="BsXj8NQYL5RJio6QYh29-4" target="BsXj8NQYL5RJio6QYh29-47">
          <mxGeometry relative="1" as="geometry" />
        </mxCell>
        <mxCell id="BsXj8NQYL5RJio6QYh29-4" value="TipoNotificacion" style="rounded=0;whiteSpace=wrap;html=1;" vertex="1" parent="1">
          <mxGeometry x="580" y="738" width="120" height="60" as="geometry" />
        </mxCell>
        <mxCell id="BsXj8NQYL5RJio6QYh29-39" style="edgeStyle=orthogonalEdgeStyle;rounded=0;orthogonalLoop=1;jettySize=auto;html=1;entryX=1;entryY=0.5;entryDx=0;entryDy=0;" edge="1" parent="1" source="BsXj8NQYL5RJio6QYh29-5" target="BsXj8NQYL5RJio6QYh29-28">
          <mxGeometry relative="1" as="geometry" />
        </mxCell>
        <mxCell id="BsXj8NQYL5RJio6QYh29-5" value="Especilidad" style="rounded=0;whiteSpace=wrap;html=1;" vertex="1" parent="1">
          <mxGeometry x="770" y="530" width="120" height="60" as="geometry" />
        </mxCell>
        <mxCell id="BsXj8NQYL5RJio6QYh29-42" style="edgeStyle=orthogonalEdgeStyle;rounded=0;orthogonalLoop=1;jettySize=auto;html=1;entryX=0.5;entryY=1;entryDx=0;entryDy=0;" edge="1" parent="1" source="BsXj8NQYL5RJio6QYh29-6" target="BsXj8NQYL5RJio6QYh29-36">
          <mxGeometry relative="1" as="geometry" />
        </mxCell>
        <mxCell id="BsXj8NQYL5RJio6QYh29-6" value="Turno" style="rounded=0;whiteSpace=wrap;html=1;" vertex="1" parent="1">
          <mxGeometry x="90" y="1458" width="120" height="60" as="geometry" />
        </mxCell>
        <mxCell id="BsXj8NQYL5RJio6QYh29-50" style="edgeStyle=orthogonalEdgeStyle;rounded=0;orthogonalLoop=1;jettySize=auto;html=1;entryX=0.5;entryY=1;entryDx=0;entryDy=0;" edge="1" parent="1" source="BsXj8NQYL5RJio6QYh29-7" target="BsXj8NQYL5RJio6QYh29-47">
          <mxGeometry relative="1" as="geometry" />
        </mxCell>
        <mxCell id="BsXj8NQYL5RJio6QYh29-7" value="Notificacion" style="rounded=0;whiteSpace=wrap;html=1;" vertex="1" parent="1">
          <mxGeometry x="580" y="1230" width="120" height="60" as="geometry" />
        </mxCell>
        <mxCell id="BsXj8NQYL5RJio6QYh29-31" style="edgeStyle=orthogonalEdgeStyle;rounded=0;orthogonalLoop=1;jettySize=auto;html=1;entryX=0;entryY=0.5;entryDx=0;entryDy=0;" edge="1" parent="1" source="BsXj8NQYL5RJio6QYh29-8" target="BsXj8NQYL5RJio6QYh29-28">
          <mxGeometry relative="1" as="geometry" />
        </mxCell>
        <mxCell id="BsXj8NQYL5RJio6QYh29-65" style="edgeStyle=orthogonalEdgeStyle;rounded=0;orthogonalLoop=1;jettySize=auto;html=1;entryX=1;entryY=0.5;entryDx=0;entryDy=0;" edge="1" parent="1" source="BsXj8NQYL5RJio6QYh29-8" target="BsXj8NQYL5RJio6QYh29-63">
          <mxGeometry relative="1" as="geometry" />
        </mxCell>
        <mxCell id="BsXj8NQYL5RJio6QYh29-8" value="Doctor" style="rounded=0;whiteSpace=wrap;html=1;" vertex="1" parent="1">
          <mxGeometry x="90" y="513" width="120" height="60" as="geometry" />
        </mxCell>
        <mxCell id="BsXj8NQYL5RJio6QYh29-37" style="edgeStyle=orthogonalEdgeStyle;rounded=0;orthogonalLoop=1;jettySize=auto;html=1;entryX=0.5;entryY=0;entryDx=0;entryDy=0;" edge="1" parent="1" source="BsXj8NQYL5RJio6QYh29-9" target="BsXj8NQYL5RJio6QYh29-36">
          <mxGeometry relative="1" as="geometry" />
        </mxCell>
        <mxCell id="BsXj8NQYL5RJio6QYh29-56" style="edgeStyle=orthogonalEdgeStyle;rounded=0;orthogonalLoop=1;jettySize=auto;html=1;entryX=0.5;entryY=1;entryDx=0;entryDy=0;" edge="1" parent="1" source="BsXj8NQYL5RJio6QYh29-9" target="BsXj8NQYL5RJio6QYh29-54">
          <mxGeometry relative="1" as="geometry" />
        </mxCell>
        <mxCell id="BsXj8NQYL5RJio6QYh29-9" value="Horario" style="rounded=0;whiteSpace=wrap;html=1;" vertex="1" parent="1">
          <mxGeometry x="90" y="970" width="120" height="60" as="geometry" />
        </mxCell>
        <mxCell id="BsXj8NQYL5RJio6QYh29-41" style="edgeStyle=orthogonalEdgeStyle;rounded=0;orthogonalLoop=1;jettySize=auto;html=1;entryX=1;entryY=0.5;entryDx=0;entryDy=0;" edge="1" parent="1" source="BsXj8NQYL5RJio6QYh29-12" target="BsXj8NQYL5RJio6QYh29-13">
          <mxGeometry relative="1" as="geometry" />
        </mxCell>
        <mxCell id="BsXj8NQYL5RJio6QYh29-12" value="&lt;span style=&quot;font-size: 17px;&quot;&gt;Genero&lt;/span&gt;" style="rounded=0;whiteSpace=wrap;html=1;" vertex="1" parent="1">
          <mxGeometry x="-30" y="270" width="120" height="60" as="geometry" />
        </mxCell>
        <mxCell id="BsXj8NQYL5RJio6QYh29-13" value="&lt;font style=&quot;font-size: 14px;&quot;&gt;tener&lt;/font&gt;" style="rhombus;whiteSpace=wrap;html=1;" vertex="1" parent="1">
          <mxGeometry x="-500" y="260" width="110" height="80" as="geometry" />
        </mxCell>
        <mxCell id="BsXj8NQYL5RJio6QYh29-18" value="(1:1)" style="text;html=1;align=center;verticalAlign=middle;resizable=0;points=[];autosize=1;strokeColor=none;fillColor=none;" vertex="1" parent="1">
          <mxGeometry x="-90" y="260" width="50" height="30" as="geometry" />
        </mxCell>
        <mxCell id="BsXj8NQYL5RJio6QYh29-19" value="(1:N)" style="text;html=1;align=center;verticalAlign=middle;resizable=0;points=[];autosize=1;strokeColor=none;fillColor=none;" vertex="1" parent="1">
          <mxGeometry x="-540" y="470" width="50" height="30" as="geometry" />
        </mxCell>
        <mxCell id="BsXj8NQYL5RJio6QYh29-20" value="PT" style="rhombus;whiteSpace=wrap;html=1;" vertex="1" parent="1">
          <mxGeometry x="-600" y="698" width="110" height="80" as="geometry" />
        </mxCell>
        <mxCell id="BsXj8NQYL5RJio6QYh29-23" value="(1:1)" style="text;html=1;align=center;verticalAlign=middle;resizable=0;points=[];autosize=1;strokeColor=none;fillColor=none;" vertex="1" parent="1">
          <mxGeometry x="-540" y="868" width="50" height="30" as="geometry" />
        </mxCell>
        <mxCell id="BsXj8NQYL5RJio6QYh29-24" value="(1:N)" style="text;html=1;align=center;verticalAlign=middle;resizable=0;points=[];autosize=1;strokeColor=none;fillColor=none;" vertex="1" parent="1">
          <mxGeometry x="-540" y="578" width="50" height="30" as="geometry" />
        </mxCell>
        <mxCell id="BsXj8NQYL5RJio6QYh29-25" value="(1:N)" style="text;html=1;align=center;verticalAlign=middle;resizable=0;points=[];autosize=1;strokeColor=none;fillColor=none;" vertex="1" parent="1">
          <mxGeometry x="-470" y="190" width="50" height="30" as="geometry" />
        </mxCell>
        <mxCell id="BsXj8NQYL5RJio6QYh29-26" value="(1:N)" style="text;html=1;align=center;verticalAlign=middle;resizable=0;points=[];autosize=1;strokeColor=none;fillColor=none;" vertex="1" parent="1">
          <mxGeometry x="-490" y="723" width="50" height="30" as="geometry" />
        </mxCell>
        <mxCell id="BsXj8NQYL5RJio6QYh29-28" value="&lt;span style=&quot;font-size: 14px;&quot;&gt;pertenecer&lt;/span&gt;" style="rhombus;whiteSpace=wrap;html=1;" vertex="1" parent="1">
          <mxGeometry x="390" y="520" width="110" height="80" as="geometry" />
        </mxCell>
        <mxCell id="BsXj8NQYL5RJio6QYh29-32" value="(1:1)" style="text;html=1;align=center;verticalAlign=middle;resizable=0;points=[];autosize=1;strokeColor=none;fillColor=none;" vertex="1" parent="1">
          <mxGeometry x="635" y="530" width="50" height="30" as="geometry" />
        </mxCell>
        <mxCell id="BsXj8NQYL5RJio6QYh29-33" value="(1:N)" style="text;html=1;align=center;verticalAlign=middle;resizable=0;points=[];autosize=1;strokeColor=none;fillColor=none;" vertex="1" parent="1">
          <mxGeometry x="210" y="545" width="50" height="30" as="geometry" />
        </mxCell>
        <mxCell id="BsXj8NQYL5RJio6QYh29-34" value="(1:N)" style="text;html=1;align=center;verticalAlign=middle;resizable=0;points=[];autosize=1;strokeColor=none;fillColor=none;" vertex="1" parent="1">
          <mxGeometry x="405" y="598" width="50" height="30" as="geometry" />
        </mxCell>
        <mxCell id="BsXj8NQYL5RJio6QYh29-36" value="&lt;span style=&quot;font-size: 14px;&quot;&gt;asignar&lt;/span&gt;" style="rhombus;whiteSpace=wrap;html=1;" vertex="1" parent="1">
          <mxGeometry x="95" y="1203" width="110" height="80" as="geometry" />
        </mxCell>
        <mxCell id="BsXj8NQYL5RJio6QYh29-43" value="(1:1)" style="text;html=1;align=center;verticalAlign=middle;resizable=0;points=[];autosize=1;strokeColor=none;fillColor=none;" vertex="1" parent="1">
          <mxGeometry x="165" y="1428" width="50" height="30" as="geometry" />
        </mxCell>
        <mxCell id="BsXj8NQYL5RJio6QYh29-44" value="(1:N)" style="text;html=1;align=center;verticalAlign=middle;resizable=0;points=[];autosize=1;strokeColor=none;fillColor=none;" vertex="1" parent="1">
          <mxGeometry x="155" y="1038" width="50" height="30" as="geometry" />
        </mxCell>
        <mxCell id="BsXj8NQYL5RJio6QYh29-45" value="(1:N)" style="text;html=1;align=center;verticalAlign=middle;resizable=0;points=[];autosize=1;strokeColor=none;fillColor=none;" vertex="1" parent="1">
          <mxGeometry x="225" y="1228" width="50" height="30" as="geometry" />
        </mxCell>
        <mxCell id="BsXj8NQYL5RJio6QYh29-47" value="&lt;font style=&quot;font-size: 14px;&quot;&gt;tener&lt;/font&gt;" style="rhombus;whiteSpace=wrap;html=1;" vertex="1" parent="1">
          <mxGeometry x="585" y="970" width="110" height="80" as="geometry" />
        </mxCell>
        <mxCell id="BsXj8NQYL5RJio6QYh29-51" value="(1:N)" style="text;html=1;align=center;verticalAlign=middle;resizable=0;points=[];autosize=1;strokeColor=none;fillColor=none;" vertex="1" parent="1">
          <mxGeometry x="645" y="1198" width="50" height="30" as="geometry" />
        </mxCell>
        <mxCell id="BsXj8NQYL5RJio6QYh29-52" value="(1;1)" style="text;html=1;align=center;verticalAlign=middle;resizable=0;points=[];autosize=1;strokeColor=none;fillColor=none;" vertex="1" parent="1">
          <mxGeometry x="635" y="798" width="50" height="30" as="geometry" />
        </mxCell>
        <mxCell id="BsXj8NQYL5RJio6QYh29-53" value="(N:M)" style="text;html=1;align=center;verticalAlign=middle;resizable=0;points=[];autosize=1;strokeColor=none;fillColor=none;" vertex="1" parent="1">
          <mxGeometry x="705" y="998" width="50" height="30" as="geometry" />
        </mxCell>
        <mxCell id="BsXj8NQYL5RJio6QYh29-55" style="edgeStyle=orthogonalEdgeStyle;rounded=0;orthogonalLoop=1;jettySize=auto;html=1;entryX=0.5;entryY=1;entryDx=0;entryDy=0;" edge="1" parent="1" source="BsXj8NQYL5RJio6QYh29-54" target="BsXj8NQYL5RJio6QYh29-8">
          <mxGeometry relative="1" as="geometry" />
        </mxCell>
        <mxCell id="BsXj8NQYL5RJio6QYh29-54" value="&lt;font style=&quot;font-size: 14px;&quot;&gt;tener&lt;/font&gt;" style="rhombus;whiteSpace=wrap;html=1;" vertex="1" parent="1">
          <mxGeometry x="95" y="718" width="110" height="80" as="geometry" />
        </mxCell>
        <mxCell id="BsXj8NQYL5RJio6QYh29-57" value="(1:N)" style="text;html=1;align=center;verticalAlign=middle;resizable=0;points=[];autosize=1;strokeColor=none;fillColor=none;" vertex="1" parent="1">
          <mxGeometry x="145" y="940" width="50" height="30" as="geometry" />
        </mxCell>
        <mxCell id="BsXj8NQYL5RJio6QYh29-58" value="(1:N)" style="text;html=1;align=center;verticalAlign=middle;resizable=0;points=[];autosize=1;strokeColor=none;fillColor=none;" vertex="1" parent="1">
          <mxGeometry x="155" y="590" width="50" height="30" as="geometry" />
        </mxCell>
        <mxCell id="BsXj8NQYL5RJio6QYh29-59" value="(N:M)" style="text;html=1;align=center;verticalAlign=middle;resizable=0;points=[];autosize=1;strokeColor=none;fillColor=none;" vertex="1" parent="1">
          <mxGeometry x="205" y="743" width="50" height="30" as="geometry" />
        </mxCell>
        <mxCell id="BsXj8NQYL5RJio6QYh29-63" value="&lt;span style=&quot;font-size: 14px;&quot;&gt;CITAR&lt;/span&gt;" style="rhombus;whiteSpace=wrap;html=1;" vertex="1" parent="1">
          <mxGeometry x="-230" y="503" width="110" height="80" as="geometry" />
        </mxCell>
        <mxCell id="BsXj8NQYL5RJio6QYh29-66" value="(1:N&lt;span style=&quot;background-color: transparent; color: light-dark(rgb(0, 0, 0), rgb(255, 255, 255));&quot;&gt;)&lt;/span&gt;" style="text;html=1;align=center;verticalAlign=middle;resizable=0;points=[];autosize=1;strokeColor=none;fillColor=none;" vertex="1" parent="1">
          <mxGeometry x="45" y="508" width="50" height="30" as="geometry" />
        </mxCell>
        <mxCell id="BsXj8NQYL5RJio6QYh29-67" value="(1:N)" style="text;html=1;align=center;verticalAlign=middle;resizable=0;points=[];autosize=1;strokeColor=none;fillColor=none;" vertex="1" parent="1">
          <mxGeometry x="-485" y="518" width="50" height="30" as="geometry" />
        </mxCell>
        <mxCell id="BsXj8NQYL5RJio6QYh29-68" value="(N:M)" style="text;html=1;align=center;verticalAlign=middle;resizable=0;points=[];autosize=1;strokeColor=none;fillColor=none;" vertex="1" parent="1">
          <mxGeometry x="-200" y="473" width="50" height="30" as="geometry" />
        </mxCell>
      </root>
    </mxGraphModel>
  </diagram>
</mxfile>
